<mxfile host="65bd71144e">
    <diagram id="R7v3YarprNnsiqp6_yFq" name="Page-1">
        <mxGraphModel dx="1676" dy="1101" grid="1" gridSize="10" guides="1" tooltips="1" connect="1" arrows="1" fold="1" page="1" pageScale="1" pageWidth="850" pageHeight="1100" background="#808080" math="0" shadow="0">
            <root>
                <mxCell id="0"/>
                <mxCell id="1" parent="0"/>
                <mxCell id="4" value="" style="edgeStyle=none;html=1;fontSize=13;" edge="1" parent="1" source="2" target="3">
                    <mxGeometry relative="1" as="geometry"/>
                </mxCell>
                <mxCell id="2" value="&lt;font style=&quot;font-size: 20px;&quot;&gt;Facility&lt;/font&gt;" style="rounded=0;whiteSpace=wrap;html=1;fillColor=#a0522d;fontColor=#ffffff;strokeColor=#6D1F00;" vertex="1" parent="1">
                    <mxGeometry x="345" y="550" width="120" height="60" as="geometry"/>
                </mxCell>
                <mxCell id="3" value="&lt;font style=&quot;font-size: 13px;&quot;&gt;Capacity&lt;/font&gt;" style="ellipse;whiteSpace=wrap;html=1;fontSize=20;" vertex="1" parent="1">
                    <mxGeometry x="310" y="450" width="80" height="50" as="geometry"/>
                </mxCell>
                <mxCell id="16" style="edgeStyle=none;html=1;exitX=0;exitY=1;exitDx=0;exitDy=0;entryX=1;entryY=0;entryDx=0;entryDy=0;fontSize=13;" edge="1" parent="1" source="5" target="2">
                    <mxGeometry relative="1" as="geometry"/>
                </mxCell>
                <mxCell id="5" value="&lt;font style=&quot;font-size: 13px;&quot;&gt;Customers&lt;span style=&quot;color: rgba(0, 0, 0, 0); font-family: monospace; font-size: 0px; text-align: start;&quot;&gt;%3CmxGraphModel%3E%3Croot%3E%3CmxCell%20id%3D%220%22%2F%3E%3CmxCell%20id%3D%221%22%20parent%3D%220%22%2F%3E%3CmxCell%20id%3D%222%22%20value%3D%22%26lt%3Bfont%20style%3D%26quot%3Bfont-size%3A%2013px%3B%26quot%3B%26gt%3BCapacity%26lt%3B%2Ffont%26gt%3B%22%20style%3D%22ellipse%3BwhiteSpace%3Dwrap%3Bhtml%3D1%3BfontSize%3D20%3B%22%20vertex%3D%221%22%20parent%3D%221%22%3E%3CmxGeometry%20x%3D%22380%22%20y%3D%2290%22%20width%3D%2280%22%20height%3D%2250%22%20as%3D%22geometry%22%2F%3E%3C%2FmxCell%3E%3C%2Froot%3E%3C%2FmxGraphModel%3E&lt;/span&gt;&lt;br&gt;&lt;/font&gt;" style="ellipse;whiteSpace=wrap;html=1;fontSize=20;" vertex="1" parent="1">
                    <mxGeometry x="520" y="480" width="80" height="50" as="geometry"/>
                </mxCell>
                <mxCell id="15" style="edgeStyle=none;html=1;exitX=0;exitY=0.5;exitDx=0;exitDy=0;entryX=1;entryY=0.5;entryDx=0;entryDy=0;fontSize=13;" edge="1" parent="1" source="6" target="2">
                    <mxGeometry relative="1" as="geometry"/>
                </mxCell>
                <mxCell id="6" value="&lt;font style=&quot;font-size: 13px;&quot;&gt;Staff&lt;span style=&quot;color: rgba(0, 0, 0, 0); font-family: monospace; font-size: 0px; text-align: start;&quot;&gt;%3CmxGraphModel%3E%3Croot%3E%3CmxCell%20id%3D%220%22%2F%3E%3CmxCell%20id%3D%221%22%20parent%3D%220%22%2F%3E%3CmxCell%20id%3D%222%22%20value%3D%22%26lt%3Bfont%20style%3D%26quot%3Bfont-size%3A%2013px%3B%26quot%3B%26gt%3BCapacity%26lt%3B%2Ffont%26gt%3B%22%20style%3D%22ellipse%3BwhiteSpace%3Dwrap%3Bhtml%3D1%3BfontSize%3D20%3B%22%20vertex%3D%221%22%20parent%3D%221%22%3E%3CmxGeometry%20x%3D%22380%22%20y%3D%2290%22%20width%3D%2280%22%20height%3D%2250%22%20as%3D%22geometry%22%2F%3E%3C%2FmxCell%3E%3C%2Froot%3E%3C%2FmxGraphModel%3E&lt;/span&gt;&lt;br&gt;&lt;/font&gt;" style="ellipse;whiteSpace=wrap;html=1;fontSize=20;" vertex="1" parent="1">
                    <mxGeometry x="530" y="560" width="80" height="50" as="geometry"/>
                </mxCell>
                <mxCell id="14" style="edgeStyle=none;html=1;exitX=0;exitY=0;exitDx=0;exitDy=0;entryX=0.75;entryY=1;entryDx=0;entryDy=0;fontSize=13;" edge="1" parent="1" source="7" target="2">
                    <mxGeometry relative="1" as="geometry"/>
                </mxCell>
                <mxCell id="7" value="&lt;font style=&quot;font-size: 13px;&quot;&gt;Location&lt;br&gt;&lt;/font&gt;" style="ellipse;whiteSpace=wrap;html=1;fontSize=20;shadow=1;fillColor=#647687;fontColor=#ffffff;strokeColor=#314354;" vertex="1" parent="1">
                    <mxGeometry x="160" y="690" width="80" height="50" as="geometry"/>
                </mxCell>
                <mxCell id="13" style="edgeStyle=none;html=1;exitX=0.565;exitY=0.139;exitDx=0;exitDy=0;entryX=0.197;entryY=1.039;entryDx=0;entryDy=0;entryPerimeter=0;fontSize=13;exitPerimeter=0;" edge="1" parent="1" source="8" target="2">
                    <mxGeometry relative="1" as="geometry"/>
                </mxCell>
                <mxCell id="8" value="&lt;font style=&quot;font-size: 13px;&quot;&gt;Parking&lt;br&gt;&lt;/font&gt;" style="ellipse;whiteSpace=wrap;html=1;fontSize=20;perimeterSpacing=11;shadow=0;" vertex="1" parent="1">
                    <mxGeometry x="136" y="620" width="80" height="50" as="geometry"/>
                </mxCell>
                <mxCell id="12" style="edgeStyle=none;html=1;exitX=1;exitY=0.5;exitDx=0;exitDy=0;entryX=0;entryY=0.75;entryDx=0;entryDy=0;fontSize=13;" edge="1" parent="1" source="9" target="2">
                    <mxGeometry relative="1" as="geometry"/>
                </mxCell>
                <mxCell id="9" value="&lt;font style=&quot;font-size: 13px;&quot;&gt;Washing&amp;nbsp;&lt;br&gt;Station&lt;br&gt;&lt;/font&gt;" style="ellipse;whiteSpace=wrap;html=1;fontSize=20;" vertex="1" parent="1">
                    <mxGeometry x="185" y="545" width="80" height="50" as="geometry"/>
                </mxCell>
                <mxCell id="11" style="edgeStyle=none;html=1;exitX=1;exitY=1;exitDx=0;exitDy=0;entryX=0;entryY=0;entryDx=0;entryDy=0;fontSize=13;" edge="1" parent="1" source="10" target="2">
                    <mxGeometry relative="1" as="geometry"/>
                </mxCell>
                <mxCell id="10" value="&lt;font style=&quot;font-size: 13px;&quot;&gt;Waiting&lt;br&gt;Area&lt;br&gt;&lt;/font&gt;" style="ellipse;whiteSpace=wrap;html=1;fontSize=20;" vertex="1" parent="1">
                    <mxGeometry x="240" y="500" width="80" height="50" as="geometry"/>
                </mxCell>
                <mxCell id="18" style="edgeStyle=none;html=1;exitX=0;exitY=0.5;exitDx=0;exitDy=0;entryX=1;entryY=1;entryDx=0;entryDy=0;fontSize=17;" edge="1" parent="1" source="17" target="2">
                    <mxGeometry relative="1" as="geometry"/>
                </mxCell>
                <mxCell id="17" value="&lt;font size=&quot;1&quot; style=&quot;&quot;&gt;&lt;u style=&quot;font-size: 17px;&quot;&gt;ID&lt;/u&gt;&lt;/font&gt;" style="ellipse;whiteSpace=wrap;html=1;fontSize=20;fillColor=#76608a;fontColor=#ffffff;strokeColor=#432D57;" vertex="1" parent="1">
                    <mxGeometry x="530" y="630" width="80" height="50" as="geometry"/>
                </mxCell>
                <mxCell id="22" style="edgeStyle=none;html=1;exitX=0.5;exitY=0;exitDx=0;exitDy=0;entryX=0;entryY=1;entryDx=0;entryDy=0;fontSize=17;" edge="1" parent="1" source="19" target="7">
                    <mxGeometry relative="1" as="geometry"/>
                </mxCell>
                <mxCell id="19" value="&lt;font style=&quot;font-size: 13px;&quot;&gt;Street&lt;br&gt;&lt;/font&gt;" style="ellipse;whiteSpace=wrap;html=1;fontSize=20;" vertex="1" parent="1">
                    <mxGeometry x="40" y="670" width="80" height="50" as="geometry"/>
                </mxCell>
                <mxCell id="24" style="edgeStyle=none;html=1;exitX=0.5;exitY=0;exitDx=0;exitDy=0;entryX=1;entryY=0.5;entryDx=0;entryDy=0;fontSize=17;" edge="1" parent="1" source="20" target="7">
                    <mxGeometry relative="1" as="geometry"/>
                </mxCell>
                <mxCell id="20" value="&lt;font style=&quot;font-size: 13px;&quot;&gt;Town&lt;br&gt;&lt;/font&gt;" style="ellipse;whiteSpace=wrap;html=1;fontSize=20;" vertex="1" parent="1">
                    <mxGeometry x="140" y="780" width="80" height="50" as="geometry"/>
                </mxCell>
                <mxCell id="23" style="edgeStyle=none;html=1;exitX=0.5;exitY=0;exitDx=0;exitDy=0;entryX=0.5;entryY=1;entryDx=0;entryDy=0;fontSize=17;" edge="1" parent="1" source="21" target="7">
                    <mxGeometry relative="1" as="geometry"/>
                </mxCell>
                <mxCell id="21" value="&lt;font style=&quot;font-size: 13px;&quot;&gt;County&lt;br&gt;&lt;/font&gt;" style="ellipse;whiteSpace=wrap;html=1;fontSize=20;" vertex="1" parent="1">
                    <mxGeometry x="50" y="740" width="80" height="50" as="geometry"/>
                </mxCell>
                <mxCell id="34" value="" style="edgeStyle=none;html=1;fontSize=13;" edge="1" parent="1" source="35" target="36">
                    <mxGeometry relative="1" as="geometry"/>
                </mxCell>
                <mxCell id="35" value="&lt;font style=&quot;font-size: 20px;&quot;&gt;Car Wash&lt;/font&gt;" style="rounded=0;whiteSpace=wrap;html=1;fillColor=#a0522d;fontColor=#ffffff;strokeColor=#6D1F00;" vertex="1" parent="1">
                    <mxGeometry x="715" y="170" width="120" height="60" as="geometry"/>
                </mxCell>
                <mxCell id="36" value="&lt;font style=&quot;font-size: 13px;&quot;&gt;Capacity&lt;/font&gt;" style="ellipse;whiteSpace=wrap;html=1;fontSize=20;" vertex="1" parent="1">
                    <mxGeometry x="660" y="80" width="80" height="50" as="geometry"/>
                </mxCell>
                <mxCell id="37" style="edgeStyle=none;html=1;exitX=0;exitY=1;exitDx=0;exitDy=0;entryX=1;entryY=0;entryDx=0;entryDy=0;fontSize=13;" edge="1" parent="1" source="38" target="35">
                    <mxGeometry relative="1" as="geometry"/>
                </mxCell>
                <mxCell id="38" value="&lt;font style=&quot;font-size: 13px;&quot;&gt;Products&lt;span style=&quot;color: rgba(0, 0, 0, 0); font-family: monospace; font-size: 0px; text-align: start;&quot;&gt;%3CmxGraphModel%3E%3Croot%3E%3CmxCell%20id%3D%220%22%2F%3E%3CmxCell%20id%3D%221%22%20parent%3D%220%22%2F%3E%3CmxCell%20id%3D%222%22%20value%3D%22%26lt%3Bfont%20style%3D%26quot%3Bfont-size%3A%2013px%3B%26quot%3B%26gt%3BCapacity%26lt%3B%2Ffont%26gt%3B%22%20style%3D%22ellipse%3BwhiteSpace%3Dwrap%3Bhtml%3D1%3BfontSize%3D20%3B%22%20vertex%3D%221%22%20parent%3D%221%22%3E%3CmxGeometry%20x%3D%22380%22%20y%3D%2290%22%20width%3D%2280%22%20height%3D%2250%22%20as%3D%22geometry%22%2F%3E%3C%2FmxCell%3E%3C%2Froot%3E%3C%2FmxGraphModel%3E&lt;/span&gt;&lt;br&gt;&lt;/font&gt;" style="ellipse;whiteSpace=wrap;html=1;fontSize=20;" vertex="1" parent="1">
                    <mxGeometry x="860" y="90" width="80" height="50" as="geometry"/>
                </mxCell>
                <mxCell id="39" style="edgeStyle=none;html=1;exitX=0;exitY=0.5;exitDx=0;exitDy=0;entryX=1;entryY=0.5;entryDx=0;entryDy=0;fontSize=13;" edge="1" parent="1" source="40" target="35">
                    <mxGeometry relative="1" as="geometry"/>
                </mxCell>
                <mxCell id="40" value="&lt;font style=&quot;font-size: 13px;&quot;&gt;Machinery&lt;br&gt;&lt;/font&gt;" style="ellipse;whiteSpace=wrap;html=1;fontSize=20;" vertex="1" parent="1">
                    <mxGeometry x="880" y="230" width="80" height="50" as="geometry"/>
                </mxCell>
                <mxCell id="49" style="edgeStyle=none;html=1;exitX=0;exitY=0.5;exitDx=0;exitDy=0;entryX=0;entryY=1;entryDx=0;entryDy=0;fontSize=17;" edge="1" parent="1" source="50" target="35">
                    <mxGeometry relative="1" as="geometry"/>
                </mxCell>
                <mxCell id="50" value="&lt;font size=&quot;1&quot; style=&quot;&quot;&gt;&lt;u style=&quot;font-size: 17px;&quot;&gt;ID&lt;/u&gt;&lt;/font&gt;" style="ellipse;whiteSpace=wrap;html=1;fontSize=20;fillColor=#76608a;fontColor=#ffffff;strokeColor=#432D57;" vertex="1" parent="1">
                    <mxGeometry x="580" y="190" width="80" height="50" as="geometry"/>
                </mxCell>
                <mxCell id="51" style="edgeStyle=none;html=1;exitX=0.5;exitY=0;exitDx=0;exitDy=0;entryX=0;entryY=1;entryDx=0;entryDy=0;fontSize=17;" edge="1" parent="1" source="52">
                    <mxGeometry relative="1" as="geometry">
                        <mxPoint x="821.7157287525383" y="312.6776695296636" as="targetPoint"/>
                    </mxGeometry>
                </mxCell>
                <mxCell id="53" style="edgeStyle=none;html=1;exitX=0.5;exitY=0;exitDx=0;exitDy=0;entryX=1;entryY=0.5;entryDx=0;entryDy=0;fontSize=17;" edge="1" parent="1" source="54">
                    <mxGeometry relative="1" as="geometry">
                        <mxPoint x="890" y="295" as="targetPoint"/>
                    </mxGeometry>
                </mxCell>
                <mxCell id="55" style="edgeStyle=none;html=1;exitX=0.5;exitY=0;exitDx=0;exitDy=0;entryX=0.5;entryY=1;entryDx=0;entryDy=0;fontSize=17;" edge="1" parent="1" source="56">
                    <mxGeometry relative="1" as="geometry">
                        <mxPoint x="850" y="320" as="targetPoint"/>
                    </mxGeometry>
                </mxCell>
                <mxCell id="58" style="edgeStyle=none;html=1;exitX=0.5;exitY=0;exitDx=0;exitDy=0;entryX=0.5;entryY=1;entryDx=0;entryDy=0;fontSize=17;" edge="1" parent="1" source="57" target="35">
                    <mxGeometry relative="1" as="geometry"/>
                </mxCell>
                <mxCell id="59" style="edgeStyle=none;html=1;exitX=0.5;exitY=1;exitDx=0;exitDy=0;entryX=0.75;entryY=0;entryDx=0;entryDy=0;fontSize=17;" edge="1" parent="1" source="57" target="2">
                    <mxGeometry relative="1" as="geometry"/>
                </mxCell>
                <mxCell id="57" value="Contains" style="rhombus;whiteSpace=wrap;html=1;shadow=0;fontSize=17;fillColor=#e51400;fontColor=#ffffff;strokeColor=#B20000;" vertex="1" parent="1">
                    <mxGeometry x="520" y="330" width="110" height="80" as="geometry"/>
                </mxCell>
                <mxCell id="60" value="N" style="text;html=1;strokeColor=none;fillColor=none;align=center;verticalAlign=middle;whiteSpace=wrap;rounded=0;shadow=0;fontSize=10;" vertex="1" parent="1">
                    <mxGeometry x="520" y="400" width="60" height="30" as="geometry"/>
                </mxCell>
                <mxCell id="61" value="M" style="text;html=1;strokeColor=none;fillColor=none;align=center;verticalAlign=middle;whiteSpace=wrap;rounded=0;shadow=0;fontSize=10;" vertex="1" parent="1">
                    <mxGeometry x="580" y="320" width="60" height="30" as="geometry"/>
                </mxCell>
                <mxCell id="62" value="Is contained in" style="text;html=1;strokeColor=none;fillColor=none;align=center;verticalAlign=middle;whiteSpace=wrap;rounded=0;shadow=0;fontSize=10;" vertex="1" parent="1">
                    <mxGeometry x="730" y="240" width="60" height="30" as="geometry"/>
                </mxCell>
                <mxCell id="64" value="Contains" style="text;html=1;strokeColor=none;fillColor=none;align=center;verticalAlign=middle;whiteSpace=wrap;rounded=0;shadow=0;fontSize=10;" vertex="1" parent="1">
                    <mxGeometry x="405" y="500" width="60" height="30" as="geometry"/>
                </mxCell>
                <mxCell id="75" value="&lt;font style=&quot;font-size: 20px;&quot;&gt;Staff&lt;/font&gt;" style="rounded=0;whiteSpace=wrap;html=1;fillColor=#a0522d;fontColor=#ffffff;strokeColor=#6D1F00;" vertex="1" parent="1">
                    <mxGeometry x="1065" y="550" width="120" height="60" as="geometry"/>
                </mxCell>
                <mxCell id="77" style="edgeStyle=none;html=1;exitX=0;exitY=1;exitDx=0;exitDy=0;entryX=1;entryY=0;entryDx=0;entryDy=0;fontSize=13;" edge="1" parent="1" source="78" target="75">
                    <mxGeometry relative="1" as="geometry"/>
                </mxCell>
                <mxCell id="78" value="&lt;font style=&quot;font-size: 13px;&quot;&gt;Products&lt;span style=&quot;color: rgba(0, 0, 0, 0); font-family: monospace; font-size: 0px; text-align: start;&quot;&gt;%3CmxGraphModel%3E%3Croot%3E%3CmxCell%20id%3D%220%22%2F%3E%3CmxCell%20id%3D%221%22%20parent%3D%220%22%2F%3E%3CmxCell%20id%3D%222%22%20value%3D%22%26lt%3Bfont%20style%3D%26quot%3Bfont-size%3A%2013px%3B%26quot%3B%26gt%3BCapacity%26lt%3B%2Ffont%26gt%3B%22%20style%3D%22ellipse%3BwhiteSpace%3Dwrap%3Bhtml%3D1%3BfontSize%3D20%3B%22%20vertex%3D%221%22%20parent%3D%221%22%3E%3CmxGeometry%20x%3D%22380%22%20y%3D%2290%22%20width%3D%2280%22%20height%3D%2250%22%20as%3D%22geometry%22%2F%3E%3C%2FmxCell%3E%3C%2Froot%3E%3C%2FmxGraphModel%3E&lt;/span&gt;&lt;br&gt;&lt;/font&gt;" style="ellipse;whiteSpace=wrap;html=1;fontSize=20;" vertex="1" parent="1">
                    <mxGeometry x="1210" y="470" width="80" height="50" as="geometry"/>
                </mxCell>
                <mxCell id="79" style="edgeStyle=none;html=1;exitX=0;exitY=0.5;exitDx=0;exitDy=0;entryX=1;entryY=0.5;entryDx=0;entryDy=0;fontSize=13;" edge="1" parent="1" source="80" target="75">
                    <mxGeometry relative="1" as="geometry"/>
                </mxCell>
                <mxCell id="80" value="&lt;font style=&quot;font-size: 13px;&quot;&gt;Machinery&lt;br&gt;&lt;/font&gt;" style="ellipse;whiteSpace=wrap;html=1;fontSize=20;" vertex="1" parent="1">
                    <mxGeometry x="1230" y="610" width="80" height="50" as="geometry"/>
                </mxCell>
                <mxCell id="81" style="edgeStyle=none;html=1;exitX=0;exitY=0.5;exitDx=0;exitDy=0;entryX=0;entryY=1;entryDx=0;entryDy=0;fontSize=17;" edge="1" parent="1" source="82" target="75">
                    <mxGeometry relative="1" as="geometry"/>
                </mxCell>
                <mxCell id="82" value="&lt;font size=&quot;1&quot; style=&quot;&quot;&gt;&lt;u style=&quot;font-size: 17px;&quot;&gt;ID&lt;/u&gt;&lt;/font&gt;" style="ellipse;whiteSpace=wrap;html=1;fontSize=20;fillColor=#76608a;fontColor=#ffffff;strokeColor=#432D57;" vertex="1" parent="1">
                    <mxGeometry x="900" y="670" width="80" height="50" as="geometry"/>
                </mxCell>
                <mxCell id="91" style="edgeStyle=none;html=1;exitX=0.5;exitY=0;exitDx=0;exitDy=0;entryX=0.308;entryY=1.033;entryDx=0;entryDy=0;entryPerimeter=0;fontSize=10;" edge="1" parent="1" source="84" target="75">
                    <mxGeometry relative="1" as="geometry"/>
                </mxCell>
                <mxCell id="84" value="&lt;font style=&quot;font-size: 13px;&quot;&gt;Address&lt;br&gt;&lt;/font&gt;" style="ellipse;whiteSpace=wrap;html=1;fontSize=20;fillColor=#647687;fontColor=#ffffff;strokeColor=#314354;" vertex="1" parent="1">
                    <mxGeometry x="1050" y="659.9999999999999" width="80" height="50" as="geometry"/>
                </mxCell>
                <mxCell id="85" style="edgeStyle=none;html=1;exitX=0.5;exitY=0;exitDx=0;exitDy=0;entryX=0;entryY=1;entryDx=0;entryDy=0;fontSize=17;" edge="1" source="86" target="84" parent="1">
                    <mxGeometry relative="1" as="geometry"/>
                </mxCell>
                <mxCell id="86" value="&lt;font style=&quot;font-size: 13px;&quot;&gt;Street&lt;br&gt;&lt;/font&gt;" style="ellipse;whiteSpace=wrap;html=1;fontSize=20;" vertex="1" parent="1">
                    <mxGeometry x="980" y="739.9999999999999" width="80" height="50" as="geometry"/>
                </mxCell>
                <mxCell id="87" style="edgeStyle=none;html=1;exitX=0.5;exitY=0;exitDx=0;exitDy=0;entryX=1;entryY=0.5;entryDx=0;entryDy=0;fontSize=17;" edge="1" source="88" target="84" parent="1">
                    <mxGeometry relative="1" as="geometry"/>
                </mxCell>
                <mxCell id="88" value="&lt;font style=&quot;font-size: 13px;&quot;&gt;Town&lt;br&gt;&lt;/font&gt;" style="ellipse;whiteSpace=wrap;html=1;fontSize=20;" vertex="1" parent="1">
                    <mxGeometry x="1150" y="709.9999999999999" width="80" height="50" as="geometry"/>
                </mxCell>
                <mxCell id="89" style="edgeStyle=none;html=1;exitX=0.5;exitY=0;exitDx=0;exitDy=0;entryX=0.5;entryY=1;entryDx=0;entryDy=0;fontSize=17;" edge="1" source="90" target="84" parent="1">
                    <mxGeometry relative="1" as="geometry"/>
                </mxCell>
                <mxCell id="90" value="&lt;font style=&quot;font-size: 13px;&quot;&gt;County&lt;br&gt;&lt;/font&gt;" style="ellipse;whiteSpace=wrap;html=1;fontSize=20;" vertex="1" parent="1">
                    <mxGeometry x="1070" y="739.9999999999999" width="80" height="50" as="geometry"/>
                </mxCell>
                <mxCell id="130" value="" style="edgeStyle=none;html=1;fontSize=10;" edge="1" parent="1" source="122" target="75">
                    <mxGeometry relative="1" as="geometry"/>
                </mxCell>
                <mxCell id="122" value="&lt;font style=&quot;font-size: 13px;&quot;&gt;Salary&lt;br&gt;&lt;/font&gt;" style="ellipse;whiteSpace=wrap;html=1;fontSize=20;fillColor=#647687;fontColor=#ffffff;strokeColor=#314354;" vertex="1" parent="1">
                    <mxGeometry x="1070" y="469.9999999999999" width="80" height="50" as="geometry"/>
                </mxCell>
                <mxCell id="123" style="edgeStyle=none;html=1;exitX=0.5;exitY=0;exitDx=0;exitDy=0;entryX=0;entryY=0;entryDx=0;entryDy=0;fontSize=17;" edge="1" source="124" target="122" parent="1">
                    <mxGeometry relative="1" as="geometry"/>
                </mxCell>
                <mxCell id="124" value="&lt;font style=&quot;font-size: 13px;&quot;&gt;Rate&lt;br&gt;&lt;/font&gt;" style="ellipse;whiteSpace=wrap;html=1;fontSize=20;" vertex="1" parent="1">
                    <mxGeometry x="980" y="449.9999999999999" width="80" height="50" as="geometry"/>
                </mxCell>
                <mxCell id="127" style="edgeStyle=none;html=1;exitX=0.5;exitY=0;exitDx=0;exitDy=0;entryX=0.671;entryY=0.096;entryDx=0;entryDy=0;fontSize=17;entryPerimeter=0;" edge="1" source="128" target="122" parent="1">
                    <mxGeometry relative="1" as="geometry"/>
                </mxCell>
                <mxCell id="128" value="&lt;font style=&quot;font-size: 13px;&quot;&gt;Amount&lt;br&gt;&lt;/font&gt;" style="ellipse;whiteSpace=wrap;html=1;fontSize=20;" vertex="1" parent="1">
                    <mxGeometry x="1090" y="399.9999999999999" width="80" height="50" as="geometry"/>
                </mxCell>
                <mxCell id="133" style="edgeStyle=none;html=1;exitX=0.5;exitY=1;exitDx=0;exitDy=0;entryX=1;entryY=0.25;entryDx=0;entryDy=0;fontSize=17;" edge="1" source="134" parent="1" target="2">
                    <mxGeometry relative="1" as="geometry">
                        <mxPoint x="680" y="700" as="targetPoint"/>
                    </mxGeometry>
                </mxCell>
                <mxCell id="140" style="edgeStyle=none;html=1;exitX=1;exitY=0.5;exitDx=0;exitDy=0;fontSize=10;" edge="1" parent="1" source="134" target="75">
                    <mxGeometry relative="1" as="geometry"/>
                </mxCell>
                <mxCell id="134" value="Employment" style="rhombus;whiteSpace=wrap;html=1;shadow=0;fontSize=17;fillColor=#e51400;fontColor=#ffffff;strokeColor=#B20000;" vertex="1" parent="1">
                    <mxGeometry x="765" y="480" width="110" height="80" as="geometry"/>
                </mxCell>
                <mxCell id="135" value="N" style="text;html=1;strokeColor=none;fillColor=none;align=center;verticalAlign=middle;whiteSpace=wrap;rounded=0;shadow=0;fontSize=10;" vertex="1" parent="1">
                    <mxGeometry x="730" y="565" width="60" height="30" as="geometry"/>
                </mxCell>
                <mxCell id="136" value="1" style="text;html=1;strokeColor=none;fillColor=none;align=center;verticalAlign=middle;whiteSpace=wrap;rounded=0;shadow=0;fontSize=10;" vertex="1" parent="1">
                    <mxGeometry x="840" y="540" width="60" height="30" as="geometry"/>
                </mxCell>
                <mxCell id="137" value="Employed by" style="text;html=1;strokeColor=none;fillColor=none;align=center;verticalAlign=middle;whiteSpace=wrap;rounded=0;shadow=0;fontSize=10;" vertex="1" parent="1">
                    <mxGeometry x="990" y="560" width="60" height="30" as="geometry"/>
                </mxCell>
                <mxCell id="138" value="Employs" style="text;html=1;strokeColor=none;fillColor=none;align=center;verticalAlign=middle;whiteSpace=wrap;rounded=0;shadow=0;fontSize=10;" vertex="1" parent="1">
                    <mxGeometry x="500" y="530" width="60" height="30" as="geometry"/>
                </mxCell>
                <mxCell id="144" value="&lt;font style=&quot;font-size: 20px;&quot;&gt;Products&lt;/font&gt;" style="rounded=0;whiteSpace=wrap;html=1;shadow=1;fontSize=10;fillColor=#a0522d;fontColor=#ffffff;strokeColor=#6D1F00;" vertex="1" parent="1">
                    <mxGeometry x="265" y="900" width="120" height="60" as="geometry"/>
                </mxCell>
                <mxCell id="188" style="edgeStyle=none;html=1;exitX=0;exitY=0.5;exitDx=0;exitDy=0;entryX=1;entryY=0.25;entryDx=0;entryDy=0;fontSize=10;" edge="1" parent="1" source="145" target="144">
                    <mxGeometry relative="1" as="geometry"/>
                </mxCell>
                <mxCell id="145" value="&lt;font style=&quot;font-size: 13px;&quot;&gt;Capacity&lt;/font&gt;" style="ellipse;whiteSpace=wrap;html=1;fontSize=20;shadow=1;" vertex="1" parent="1">
                    <mxGeometry x="440" y="890" width="80" height="50" as="geometry"/>
                </mxCell>
                <mxCell id="146" style="edgeStyle=none;html=1;exitX=0;exitY=1;exitDx=0;exitDy=0;entryX=1;entryY=0;entryDx=0;entryDy=0;fontSize=13;" edge="1" source="147" target="144" parent="1">
                    <mxGeometry relative="1" as="geometry"/>
                </mxCell>
                <mxCell id="147" value="&lt;font style=&quot;font-size: 13px;&quot;&gt;Supplier&lt;br&gt;&lt;/font&gt;" style="ellipse;whiteSpace=wrap;html=1;fontSize=20;shadow=1;" vertex="1" parent="1">
                    <mxGeometry x="410" y="820" width="80" height="50" as="geometry"/>
                </mxCell>
                <mxCell id="148" style="edgeStyle=none;html=1;exitX=0;exitY=0.5;exitDx=0;exitDy=0;entryX=1;entryY=0.5;entryDx=0;entryDy=0;fontSize=13;" edge="1" source="149" target="144" parent="1">
                    <mxGeometry relative="1" as="geometry"/>
                </mxCell>
                <mxCell id="149" value="&lt;font style=&quot;font-size: 13px;&quot;&gt;Quantity&lt;br&gt;&lt;/font&gt;" style="ellipse;whiteSpace=wrap;html=1;fontSize=20;shadow=1;" vertex="1" parent="1">
                    <mxGeometry x="430" y="960" width="80" height="50" as="geometry"/>
                </mxCell>
                <mxCell id="150" style="edgeStyle=none;html=1;exitX=0;exitY=0.5;exitDx=0;exitDy=0;entryX=0;entryY=1;entryDx=0;entryDy=0;fontSize=17;" edge="1" source="151" target="144" parent="1">
                    <mxGeometry relative="1" as="geometry"/>
                </mxCell>
                <mxCell id="151" value="&lt;font size=&quot;1&quot; style=&quot;&quot;&gt;&lt;u style=&quot;font-size: 17px;&quot;&gt;ID&lt;/u&gt;&lt;/font&gt;" style="ellipse;whiteSpace=wrap;html=1;fontSize=20;shadow=1;fillColor=#76608a;fontColor=#ffffff;strokeColor=#432D57;" vertex="1" parent="1">
                    <mxGeometry x="160" y="905" width="80" height="50" as="geometry"/>
                </mxCell>
                <mxCell id="160" style="edgeStyle=none;html=1;exitX=0.5;exitY=0;exitDx=0;exitDy=0;entryX=0.5;entryY=1;entryDx=0;entryDy=0;fontSize=10;" edge="1" parent="1" source="153" target="144">
                    <mxGeometry relative="1" as="geometry"/>
                </mxCell>
                <mxCell id="153" value="&lt;font style=&quot;font-size: 13px;&quot;&gt;Type&lt;br&gt;&lt;/font&gt;" style="ellipse;whiteSpace=wrap;html=1;fontSize=20;fillColor=#647687;fontColor=#ffffff;strokeColor=#314354;shadow=1;" vertex="1" parent="1">
                    <mxGeometry x="420" y="1040" width="80" height="50" as="geometry"/>
                </mxCell>
                <mxCell id="156" style="edgeStyle=none;html=1;exitX=0.5;exitY=0;exitDx=0;exitDy=0;entryX=1;entryY=0.5;entryDx=0;entryDy=0;fontSize=17;" edge="1" source="157" target="153" parent="1">
                    <mxGeometry relative="1" as="geometry"/>
                </mxCell>
                <mxCell id="157" value="&lt;font style=&quot;font-size: 13px;&quot;&gt;Cost&lt;br&gt;&lt;/font&gt;" style="ellipse;whiteSpace=wrap;html=1;fontSize=20;shadow=1;" vertex="1" parent="1">
                    <mxGeometry x="560" y="1010" width="80" height="50" as="geometry"/>
                </mxCell>
                <mxCell id="158" style="edgeStyle=none;html=1;exitX=0.5;exitY=0;exitDx=0;exitDy=0;entryX=0.5;entryY=1;entryDx=0;entryDy=0;fontSize=17;" edge="1" source="159" target="153" parent="1">
                    <mxGeometry relative="1" as="geometry"/>
                </mxCell>
                <mxCell id="159" value="&lt;font style=&quot;font-size: 13px;&quot;&gt;Brand&lt;br&gt;&lt;/font&gt;" style="ellipse;whiteSpace=wrap;html=1;fontSize=20;shadow=1;" vertex="1" parent="1">
                    <mxGeometry x="450" y="1120" width="80" height="50" as="geometry"/>
                </mxCell>
                <mxCell id="162" value="&lt;font style=&quot;font-size: 20px;&quot;&gt;Supplier&lt;/font&gt;" style="rounded=0;whiteSpace=wrap;html=1;shadow=1;fontSize=10;fillColor=#a0522d;fontColor=#ffffff;strokeColor=#6D1F00;" vertex="1" parent="1">
                    <mxGeometry x="550" y="1230" width="120" height="60" as="geometry"/>
                </mxCell>
                <mxCell id="187" style="edgeStyle=none;html=1;exitX=1;exitY=0.5;exitDx=0;exitDy=0;fontSize=10;entryX=0;entryY=0.75;entryDx=0;entryDy=0;" edge="1" parent="1" source="163" target="162">
                    <mxGeometry relative="1" as="geometry">
                        <mxPoint x="550" y="1300" as="targetPoint"/>
                    </mxGeometry>
                </mxCell>
                <mxCell id="163" value="&lt;font style=&quot;font-size: 13px;&quot;&gt;Stock&lt;/font&gt;" style="ellipse;whiteSpace=wrap;html=1;fontSize=20;shadow=1;" vertex="1" parent="1">
                    <mxGeometry x="390" y="1300" width="80" height="50" as="geometry"/>
                </mxCell>
                <mxCell id="186" style="edgeStyle=none;html=1;exitX=0;exitY=0.5;exitDx=0;exitDy=0;entryX=1;entryY=0.5;entryDx=0;entryDy=0;fontSize=10;" edge="1" parent="1" source="165" target="162">
                    <mxGeometry relative="1" as="geometry"/>
                </mxCell>
                <mxCell id="165" value="&lt;font style=&quot;font-size: 13px;&quot;&gt;Products&lt;span style=&quot;color: rgba(0, 0, 0, 0); font-family: monospace; font-size: 0px; text-align: start;&quot;&gt;%3CmxGraphModel%3E%3Croot%3E%3CmxCell%20id%3D%220%22%2F%3E%3CmxCell%20id%3D%221%22%20parent%3D%220%22%2F%3E%3CmxCell%20id%3D%222%22%20value%3D%22%26lt%3Bfont%20style%3D%26quot%3Bfont-size%3A%2013px%3B%26quot%3B%26gt%3BCapacity%26lt%3B%2Ffont%26gt%3B%22%20style%3D%22ellipse%3BwhiteSpace%3Dwrap%3Bhtml%3D1%3BfontSize%3D20%3B%22%20vertex%3D%221%22%20parent%3D%221%22%3E%3CmxGeometry%20x%3D%22380%22%20y%3D%2290%22%20width%3D%2280%22%20height%3D%2250%22%20as%3D%22geometry%22%2F%3E%3C%2FmxCell%3E%3C%2Froot%3E%3C%2FmxGraphModel%3E&lt;/span&gt;&lt;br&gt;&lt;/font&gt;" style="ellipse;whiteSpace=wrap;html=1;fontSize=20;shadow=1;" vertex="1" parent="1">
                    <mxGeometry x="740" y="1260" width="80" height="50" as="geometry"/>
                </mxCell>
                <mxCell id="168" style="edgeStyle=none;html=1;exitX=0;exitY=0.5;exitDx=0;exitDy=0;entryX=0.25;entryY=1;entryDx=0;entryDy=0;fontSize=17;" edge="1" source="169" target="162" parent="1">
                    <mxGeometry relative="1" as="geometry"/>
                </mxCell>
                <mxCell id="169" value="&lt;font size=&quot;1&quot; style=&quot;&quot;&gt;&lt;u style=&quot;font-size: 17px;&quot;&gt;ID&lt;/u&gt;&lt;/font&gt;" style="ellipse;whiteSpace=wrap;html=1;fontSize=20;shadow=1;fillColor=#76608a;fontColor=#ffffff;strokeColor=#432D57;" vertex="1" parent="1">
                    <mxGeometry x="450" y="1370" width="80" height="50" as="geometry"/>
                </mxCell>
                <mxCell id="177" style="edgeStyle=none;html=1;exitX=0.5;exitY=0;exitDx=0;exitDy=0;entryX=0.5;entryY=1;entryDx=0;entryDy=0;fontSize=10;" edge="1" parent="1" source="170" target="162">
                    <mxGeometry relative="1" as="geometry"/>
                </mxCell>
                <mxCell id="170" value="&lt;font style=&quot;font-size: 13px;&quot;&gt;Address&lt;br&gt;&lt;/font&gt;" style="ellipse;whiteSpace=wrap;html=1;fontSize=20;fillColor=#647687;fontColor=#ffffff;strokeColor=#314354;shadow=1;" vertex="1" parent="1">
                    <mxGeometry x="620" y="1340" width="80" height="50" as="geometry"/>
                </mxCell>
                <mxCell id="171" style="edgeStyle=none;html=1;exitX=0.5;exitY=0;exitDx=0;exitDy=0;entryX=0;entryY=1;entryDx=0;entryDy=0;fontSize=17;" edge="1" source="172" target="170" parent="1">
                    <mxGeometry relative="1" as="geometry"/>
                </mxCell>
                <mxCell id="172" value="&lt;font style=&quot;font-size: 13px;&quot;&gt;Street&lt;br&gt;&lt;/font&gt;" style="ellipse;whiteSpace=wrap;html=1;fontSize=20;shadow=1;" vertex="1" parent="1">
                    <mxGeometry x="570" y="1430" width="80" height="50" as="geometry"/>
                </mxCell>
                <mxCell id="173" style="edgeStyle=none;html=1;exitX=0.5;exitY=0;exitDx=0;exitDy=0;entryX=1;entryY=0.5;entryDx=0;entryDy=0;fontSize=17;" edge="1" source="174" target="170" parent="1">
                    <mxGeometry relative="1" as="geometry"/>
                </mxCell>
                <mxCell id="174" value="&lt;font style=&quot;font-size: 13px;&quot;&gt;Town&lt;br&gt;&lt;/font&gt;" style="ellipse;whiteSpace=wrap;html=1;fontSize=20;shadow=1;" vertex="1" parent="1">
                    <mxGeometry x="740" y="1400" width="80" height="50" as="geometry"/>
                </mxCell>
                <mxCell id="175" style="edgeStyle=none;html=1;exitX=0.5;exitY=0;exitDx=0;exitDy=0;entryX=0.5;entryY=1;entryDx=0;entryDy=0;fontSize=17;" edge="1" source="176" target="170" parent="1">
                    <mxGeometry relative="1" as="geometry"/>
                </mxCell>
                <mxCell id="176" value="&lt;font style=&quot;font-size: 13px;&quot;&gt;County&lt;br&gt;&lt;/font&gt;" style="ellipse;whiteSpace=wrap;html=1;fontSize=20;shadow=1;" vertex="1" parent="1">
                    <mxGeometry x="660" y="1430" width="80" height="50" as="geometry"/>
                </mxCell>
                <mxCell id="178" style="edgeStyle=none;html=1;exitX=0.5;exitY=0;exitDx=0;exitDy=0;entryX=0.165;entryY=1.017;entryDx=0;entryDy=0;fontSize=17;entryPerimeter=0;" edge="1" source="180" parent="1" target="144">
                    <mxGeometry relative="1" as="geometry">
                        <mxPoint x="565" y="1070" as="targetPoint"/>
                    </mxGeometry>
                </mxCell>
                <mxCell id="179" style="edgeStyle=none;html=1;exitX=0.5;exitY=1;exitDx=0;exitDy=0;entryX=0.5;entryY=0;entryDx=0;entryDy=0;fontSize=17;" edge="1" source="180" parent="1" target="162">
                    <mxGeometry relative="1" as="geometry">
                        <mxPoint x="225" y="1390" as="targetPoint"/>
                    </mxGeometry>
                </mxCell>
                <mxCell id="180" value="Sales" style="rhombus;whiteSpace=wrap;html=1;shadow=0;fontSize=17;fillColor=#e51400;fontColor=#ffffff;strokeColor=#B20000;" vertex="1" parent="1">
                    <mxGeometry x="320" y="1130" width="110" height="80" as="geometry"/>
                </mxCell>
                <mxCell id="181" value="N" style="text;html=1;strokeColor=none;fillColor=none;align=center;verticalAlign=middle;whiteSpace=wrap;rounded=0;shadow=0;fontSize=10;" vertex="1" parent="1">
                    <mxGeometry x="320" y="1200" width="60" height="30" as="geometry"/>
                </mxCell>
                <mxCell id="182" value="M" style="text;html=1;strokeColor=none;fillColor=none;align=center;verticalAlign=middle;whiteSpace=wrap;rounded=0;shadow=0;fontSize=10;" vertex="1" parent="1">
                    <mxGeometry x="380" y="1120" width="60" height="30" as="geometry"/>
                </mxCell>
                <mxCell id="183" value="Sold by" style="text;html=1;strokeColor=none;fillColor=none;align=center;verticalAlign=middle;whiteSpace=wrap;rounded=0;shadow=0;fontSize=10;" vertex="1" parent="1">
                    <mxGeometry x="295" y="980" width="60" height="30" as="geometry"/>
                </mxCell>
                <mxCell id="184" value="Sells" style="text;html=1;strokeColor=none;fillColor=none;align=center;verticalAlign=middle;whiteSpace=wrap;rounded=0;shadow=0;fontSize=10;" vertex="1" parent="1">
                    <mxGeometry x="540" y="1200" width="60" height="30" as="geometry"/>
                </mxCell>
                <mxCell id="189" style="edgeStyle=none;html=1;exitX=0.5;exitY=0;exitDx=0;exitDy=0;entryX=0.5;entryY=1;entryDx=0;entryDy=0;fontSize=17;" edge="1" source="191" parent="1">
                    <mxGeometry relative="1" as="geometry">
                        <mxPoint x="396" y="610" as="targetPoint"/>
                        <mxPoint x="196" y="709.9999999999998" as="sourcePoint"/>
                    </mxGeometry>
                </mxCell>
                <mxCell id="190" style="edgeStyle=none;html=1;exitX=0.5;exitY=1;exitDx=0;exitDy=0;entryX=0.5;entryY=0;entryDx=0;entryDy=0;fontSize=17;" edge="1" source="191" parent="1" target="144">
                    <mxGeometry relative="1" as="geometry">
                        <mxPoint x="51" y="970" as="targetPoint"/>
                    </mxGeometry>
                </mxCell>
                <mxCell id="191" value="Contains" style="rhombus;whiteSpace=wrap;html=1;shadow=0;fontSize=17;fillColor=#e51400;fontColor=#ffffff;strokeColor=#B20000;" vertex="1" parent="1">
                    <mxGeometry x="235" y="740" width="110" height="80" as="geometry"/>
                </mxCell>
                <mxCell id="192" value="N" style="text;html=1;strokeColor=none;fillColor=none;align=center;verticalAlign=middle;whiteSpace=wrap;rounded=0;shadow=0;fontSize=10;" vertex="1" parent="1">
                    <mxGeometry x="280" y="810" width="60" height="30" as="geometry"/>
                </mxCell>
                <mxCell id="193" value="M" style="text;html=1;strokeColor=none;fillColor=none;align=center;verticalAlign=middle;whiteSpace=wrap;rounded=0;shadow=0;fontSize=10;" vertex="1" parent="1">
                    <mxGeometry x="285" y="720" width="60" height="30" as="geometry"/>
                </mxCell>
                <mxCell id="194" value="Supplies" style="text;html=1;strokeColor=none;fillColor=none;align=center;verticalAlign=middle;whiteSpace=wrap;rounded=0;shadow=0;fontSize=10;" vertex="1" parent="1">
                    <mxGeometry x="330" y="660" width="60" height="30" as="geometry"/>
                </mxCell>
                <mxCell id="195" value="Supplied by" style="text;html=1;strokeColor=none;fillColor=none;align=center;verticalAlign=middle;whiteSpace=wrap;rounded=0;shadow=0;fontSize=10;" vertex="1" parent="1">
                    <mxGeometry x="300" y="850" width="60" height="30" as="geometry"/>
                </mxCell>
                <mxCell id="196" value="" style="edgeStyle=none;html=1;fontSize=13;" edge="1" source="197" target="198" parent="1">
                    <mxGeometry relative="1" as="geometry"/>
                </mxCell>
                <mxCell id="197" value="&lt;span style=&quot;font-size: 20px;&quot;&gt;Customer&lt;/span&gt;" style="rounded=0;whiteSpace=wrap;html=1;shadow=1;fontSize=10;fillColor=#a0522d;fontColor=#ffffff;strokeColor=#6D1F00;" vertex="1" parent="1">
                    <mxGeometry x="1045" y="1040" width="120" height="60" as="geometry"/>
                </mxCell>
                <mxCell id="198" value="&lt;font style=&quot;font-size: 13px;&quot;&gt;Vehicle&lt;/font&gt;" style="ellipse;whiteSpace=wrap;html=1;fontSize=20;shadow=1;" vertex="1" parent="1">
                    <mxGeometry x="990" y="950" width="80" height="50" as="geometry"/>
                </mxCell>
                <mxCell id="199" style="edgeStyle=none;html=1;exitX=0;exitY=1;exitDx=0;exitDy=0;entryX=1;entryY=0;entryDx=0;entryDy=0;fontSize=13;" edge="1" source="200" target="197" parent="1">
                    <mxGeometry relative="1" as="geometry"/>
                </mxCell>
                <mxCell id="200" value="&lt;font style=&quot;font-size: 13px;&quot;&gt;Age&lt;br&gt;&lt;/font&gt;" style="ellipse;whiteSpace=wrap;html=1;fontSize=20;shadow=1;" vertex="1" parent="1">
                    <mxGeometry x="1190" y="960" width="80" height="50" as="geometry"/>
                </mxCell>
                <mxCell id="201" style="edgeStyle=none;html=1;exitX=0;exitY=0.5;exitDx=0;exitDy=0;entryX=1;entryY=0.5;entryDx=0;entryDy=0;fontSize=13;" edge="1" source="202" target="197" parent="1">
                    <mxGeometry relative="1" as="geometry"/>
                </mxCell>
                <mxCell id="202" value="&lt;font style=&quot;font-size: 13px;&quot;&gt;Phone number&lt;br&gt;&lt;/font&gt;" style="ellipse;whiteSpace=wrap;html=1;fontSize=20;shadow=1;" vertex="1" parent="1">
                    <mxGeometry x="1245" y="1040" width="80" height="50" as="geometry"/>
                </mxCell>
                <mxCell id="203" style="edgeStyle=none;html=1;exitX=0;exitY=0.5;exitDx=0;exitDy=0;entryX=0;entryY=1;entryDx=0;entryDy=0;fontSize=17;" edge="1" source="204" target="197" parent="1">
                    <mxGeometry relative="1" as="geometry"/>
                </mxCell>
                <mxCell id="204" value="&lt;font size=&quot;1&quot; style=&quot;&quot;&gt;&lt;u style=&quot;font-size: 17px;&quot;&gt;ID&lt;/u&gt;&lt;/font&gt;" style="ellipse;whiteSpace=wrap;html=1;fontSize=20;shadow=1;fillColor=#76608a;fontColor=#ffffff;strokeColor=#432D57;" vertex="1" parent="1">
                    <mxGeometry x="920" y="1030" width="80" height="50" as="geometry"/>
                </mxCell>
                <mxCell id="212" value="" style="edgeStyle=none;html=1;fontSize=10;" edge="1" parent="1" source="205" target="197">
                    <mxGeometry relative="1" as="geometry"/>
                </mxCell>
                <mxCell id="205" value="&lt;font style=&quot;font-size: 13px;&quot;&gt;Name&lt;br&gt;&lt;/font&gt;" style="ellipse;whiteSpace=wrap;html=1;fontSize=20;fillColor=#647687;fontColor=#ffffff;strokeColor=#314354;shadow=1;" vertex="1" parent="1">
                    <mxGeometry x="1080" y="1145" width="80" height="50" as="geometry"/>
                </mxCell>
                <mxCell id="206" style="edgeStyle=none;html=1;exitX=0.5;exitY=0;exitDx=0;exitDy=0;entryX=0;entryY=1;entryDx=0;entryDy=0;fontSize=17;" edge="1" source="207" target="205" parent="1">
                    <mxGeometry relative="1" as="geometry"/>
                </mxCell>
                <mxCell id="207" value="&lt;font style=&quot;font-size: 13px;&quot;&gt;First&lt;br&gt;&lt;/font&gt;" style="ellipse;whiteSpace=wrap;html=1;fontSize=20;shadow=1;" vertex="1" parent="1">
                    <mxGeometry x="990" y="1230" width="80" height="50" as="geometry"/>
                </mxCell>
                <mxCell id="208" style="edgeStyle=none;html=1;exitX=0.5;exitY=0;exitDx=0;exitDy=0;entryX=1;entryY=0.5;entryDx=0;entryDy=0;fontSize=17;" edge="1" source="209" target="205" parent="1">
                    <mxGeometry relative="1" as="geometry"/>
                </mxCell>
                <mxCell id="209" value="&lt;font style=&quot;font-size: 13px;&quot;&gt;Last&lt;br&gt;&lt;/font&gt;" style="ellipse;whiteSpace=wrap;html=1;fontSize=20;shadow=1;" vertex="1" parent="1">
                    <mxGeometry x="1160" y="1200" width="80" height="50" as="geometry"/>
                </mxCell>
                <mxCell id="210" style="edgeStyle=none;html=1;exitX=0.5;exitY=0;exitDx=0;exitDy=0;entryX=0.5;entryY=1;entryDx=0;entryDy=0;fontSize=17;" edge="1" source="211" target="205" parent="1">
                    <mxGeometry relative="1" as="geometry"/>
                </mxCell>
                <mxCell id="211" value="&lt;font style=&quot;font-size: 13px;&quot;&gt;Middle&lt;br&gt;&lt;/font&gt;" style="ellipse;whiteSpace=wrap;html=1;fontSize=20;shadow=1;" vertex="1" parent="1">
                    <mxGeometry x="1080" y="1230" width="80" height="50" as="geometry"/>
                </mxCell>
                <mxCell id="220" style="edgeStyle=none;html=1;exitX=0.5;exitY=0;exitDx=0;exitDy=0;fontSize=10;" edge="1" parent="1" source="213">
                    <mxGeometry relative="1" as="geometry">
                        <mxPoint x="1070" y="1110" as="targetPoint"/>
                    </mxGeometry>
                </mxCell>
                <mxCell id="213" value="&lt;font style=&quot;font-size: 13px;&quot;&gt;Address&lt;br&gt;&lt;/font&gt;" style="ellipse;whiteSpace=wrap;html=1;fontSize=20;fillColor=#647687;fontColor=#ffffff;strokeColor=#314354;shadow=1;" vertex="1" parent="1">
                    <mxGeometry x="960" y="1120" width="80" height="50" as="geometry"/>
                </mxCell>
                <mxCell id="214" style="edgeStyle=none;html=1;exitX=0.5;exitY=0;exitDx=0;exitDy=0;entryX=0;entryY=1;entryDx=0;entryDy=0;fontSize=17;" edge="1" source="215" target="213" parent="1">
                    <mxGeometry relative="1" as="geometry"/>
                </mxCell>
                <mxCell id="215" value="&lt;font style=&quot;font-size: 13px;&quot;&gt;Street&lt;br&gt;&lt;/font&gt;" style="ellipse;whiteSpace=wrap;html=1;fontSize=20;shadow=1;" vertex="1" parent="1">
                    <mxGeometry x="800" y="1120" width="80" height="50" as="geometry"/>
                </mxCell>
                <mxCell id="216" style="edgeStyle=none;html=1;exitX=0.5;exitY=0;exitDx=0;exitDy=0;entryX=0.762;entryY=0.953;entryDx=0;entryDy=0;fontSize=17;entryPerimeter=0;" edge="1" source="217" target="213" parent="1">
                    <mxGeometry relative="1" as="geometry"/>
                </mxCell>
                <mxCell id="217" value="&lt;font style=&quot;font-size: 13px;&quot;&gt;Town&lt;br&gt;&lt;/font&gt;" style="ellipse;whiteSpace=wrap;html=1;fontSize=20;shadow=1;" vertex="1" parent="1">
                    <mxGeometry x="870" y="1250" width="80" height="50" as="geometry"/>
                </mxCell>
                <mxCell id="218" style="edgeStyle=none;html=1;exitX=0.5;exitY=0;exitDx=0;exitDy=0;entryX=0.5;entryY=1;entryDx=0;entryDy=0;fontSize=17;" edge="1" source="219" target="213" parent="1">
                    <mxGeometry relative="1" as="geometry"/>
                </mxCell>
                <mxCell id="219" value="&lt;font style=&quot;font-size: 13px;&quot;&gt;County&lt;br&gt;&lt;/font&gt;" style="ellipse;whiteSpace=wrap;html=1;fontSize=20;shadow=1;" vertex="1" parent="1">
                    <mxGeometry x="810" y="1195" width="80" height="50" as="geometry"/>
                </mxCell>
                <mxCell id="223" value="&lt;font style=&quot;font-size: 20px;&quot;&gt;Vehicle&lt;/font&gt;" style="rounded=0;whiteSpace=wrap;html=1;shadow=1;fontSize=10;fillColor=#a0522d;fontColor=#ffffff;strokeColor=#6D1F00;" vertex="1" parent="1">
                    <mxGeometry x="1495" y="835" width="120" height="60" as="geometry"/>
                </mxCell>
                <mxCell id="225" style="edgeStyle=none;html=1;exitX=0;exitY=1;exitDx=0;exitDy=0;entryX=1;entryY=0;entryDx=0;entryDy=0;fontSize=13;" edge="1" source="226" target="223" parent="1">
                    <mxGeometry relative="1" as="geometry"/>
                </mxCell>
                <mxCell id="226" value="&lt;font style=&quot;font-size: 13px;&quot;&gt;NCT&lt;br&gt;&lt;/font&gt;" style="ellipse;whiteSpace=wrap;html=1;fontSize=20;shadow=1;" vertex="1" parent="1">
                    <mxGeometry x="1640" y="755" width="80" height="50" as="geometry"/>
                </mxCell>
                <mxCell id="229" style="edgeStyle=none;html=1;exitX=0;exitY=0.5;exitDx=0;exitDy=0;entryX=0;entryY=1;entryDx=0;entryDy=0;fontSize=17;" edge="1" source="230" target="223" parent="1">
                    <mxGeometry relative="1" as="geometry"/>
                </mxCell>
                <mxCell id="230" value="&lt;font size=&quot;1&quot; style=&quot;&quot;&gt;&lt;u style=&quot;font-size: 17px;&quot;&gt;License plate&lt;/u&gt;&lt;/font&gt;" style="ellipse;whiteSpace=wrap;html=1;fontSize=20;shadow=1;fillColor=#76608a;fontColor=#ffffff;strokeColor=#432D57;" vertex="1" parent="1">
                    <mxGeometry x="1370" y="950" width="80" height="50" as="geometry"/>
                </mxCell>
                <mxCell id="239" style="edgeStyle=none;html=1;exitX=0.5;exitY=0;exitDx=0;exitDy=0;entryX=0.5;entryY=1;entryDx=0;entryDy=0;fontSize=10;" edge="1" parent="1" source="232" target="223">
                    <mxGeometry relative="1" as="geometry"/>
                </mxCell>
                <mxCell id="232" value="&lt;font style=&quot;font-size: 13px;&quot;&gt;Manufacturer&lt;br&gt;&lt;/font&gt;" style="ellipse;whiteSpace=wrap;html=1;fontSize=20;shadow=1;" vertex="1" parent="1">
                    <mxGeometry x="1540" y="935" width="80" height="50" as="geometry"/>
                </mxCell>
                <mxCell id="249" style="edgeStyle=none;html=1;exitX=0;exitY=0.5;exitDx=0;exitDy=0;entryX=1;entryY=0.5;entryDx=0;entryDy=0;fontSize=10;" edge="1" parent="1" source="242" target="223">
                    <mxGeometry relative="1" as="geometry"/>
                </mxCell>
                <mxCell id="242" value="&lt;font style=&quot;font-size: 13px;&quot;&gt;Engine&lt;br&gt;&lt;/font&gt;" style="ellipse;whiteSpace=wrap;html=1;fontSize=20;fillColor=#647687;fontColor=#ffffff;strokeColor=#314354;shadow=1;" vertex="1" parent="1">
                    <mxGeometry x="1660" y="835" width="80" height="50" as="geometry"/>
                </mxCell>
                <mxCell id="243" style="edgeStyle=none;html=1;exitX=0.5;exitY=0;exitDx=0;exitDy=0;entryX=0;entryY=1;entryDx=0;entryDy=0;fontSize=17;" edge="1" source="244" target="242" parent="1">
                    <mxGeometry relative="1" as="geometry"/>
                </mxCell>
                <mxCell id="244" value="&lt;font style=&quot;font-size: 13px;&quot;&gt;Model&lt;br&gt;&lt;/font&gt;" style="ellipse;whiteSpace=wrap;html=1;fontSize=20;shadow=1;" vertex="1" parent="1">
                    <mxGeometry x="1690" y="915" width="80" height="50" as="geometry"/>
                </mxCell>
                <mxCell id="245" style="edgeStyle=none;html=1;exitX=0.5;exitY=0;exitDx=0;exitDy=0;entryX=1;entryY=0.5;entryDx=0;entryDy=0;fontSize=17;" edge="1" source="246" target="242" parent="1">
                    <mxGeometry relative="1" as="geometry"/>
                </mxCell>
                <mxCell id="246" value="&lt;font style=&quot;font-size: 13px;&quot;&gt;Horsepower&lt;br&gt;&lt;/font&gt;" style="ellipse;whiteSpace=wrap;html=1;fontSize=20;shadow=1;" vertex="1" parent="1">
                    <mxGeometry x="1860" y="885" width="80" height="50" as="geometry"/>
                </mxCell>
                <mxCell id="247" style="edgeStyle=none;html=1;exitX=0.5;exitY=0;exitDx=0;exitDy=0;entryX=0.5;entryY=1;entryDx=0;entryDy=0;fontSize=17;" edge="1" source="248" target="242" parent="1">
                    <mxGeometry relative="1" as="geometry"/>
                </mxCell>
                <mxCell id="248" value="&lt;font style=&quot;font-size: 13px;&quot;&gt;Manufacturer&lt;br&gt;&lt;/font&gt;" style="ellipse;whiteSpace=wrap;html=1;fontSize=20;shadow=1;" vertex="1" parent="1">
                    <mxGeometry x="1780" y="915" width="80" height="50" as="geometry"/>
                </mxCell>
                <mxCell id="250" style="edgeStyle=none;html=1;exitX=0;exitY=0.5;exitDx=0;exitDy=0;entryX=1;entryY=0;entryDx=0;entryDy=0;fontSize=17;" edge="1" parent="1" source="251" target="242">
                    <mxGeometry relative="1" as="geometry">
                        <mxPoint x="1760.0000000000005" y="775" as="targetPoint"/>
                    </mxGeometry>
                </mxCell>
                <mxCell id="251" value="&lt;font style=&quot;font-size: 13px;&quot;&gt;Fuel type&lt;br&gt;&lt;/font&gt;" style="ellipse;whiteSpace=wrap;html=1;fontSize=20;shadow=1;" vertex="1" parent="1">
                    <mxGeometry x="1780" y="795" width="80" height="50" as="geometry"/>
                </mxCell>
                <mxCell id="252" style="edgeStyle=none;html=1;exitX=0.5;exitY=0;exitDx=0;exitDy=0;fontSize=17;" edge="1" source="254" parent="1">
                    <mxGeometry relative="1" as="geometry">
                        <mxPoint x="1130" y="1040" as="targetPoint"/>
                    </mxGeometry>
                </mxCell>
                <mxCell id="253" style="edgeStyle=none;html=1;exitX=1;exitY=0.5;exitDx=0;exitDy=0;fontSize=17;entryX=0;entryY=0.5;entryDx=0;entryDy=0;" edge="1" source="254" parent="1" target="223">
                    <mxGeometry relative="1" as="geometry">
                        <mxPoint x="1520" y="890" as="targetPoint"/>
                    </mxGeometry>
                </mxCell>
                <mxCell id="254" value="Ownership" style="rhombus;whiteSpace=wrap;html=1;shadow=0;fontSize=17;fillColor=#e51400;fontColor=#ffffff;strokeColor=#B20000;" vertex="1" parent="1">
                    <mxGeometry x="1130" y="840" width="110" height="80" as="geometry"/>
                </mxCell>
                <mxCell id="255" value="1" style="text;html=1;strokeColor=none;fillColor=none;align=center;verticalAlign=middle;whiteSpace=wrap;rounded=0;shadow=0;fontSize=10;" vertex="1" parent="1">
                    <mxGeometry x="1220" y="850" width="60" height="30" as="geometry"/>
                </mxCell>
                <mxCell id="256" value="M" style="text;html=1;strokeColor=none;fillColor=none;align=center;verticalAlign=middle;whiteSpace=wrap;rounded=0;shadow=0;fontSize=10;" vertex="1" parent="1">
                    <mxGeometry x="1125" y="890" width="60" height="30" as="geometry"/>
                </mxCell>
                <mxCell id="257" value="Owms" style="text;html=1;strokeColor=none;fillColor=none;align=center;verticalAlign=middle;whiteSpace=wrap;rounded=0;shadow=0;fontSize=10;" vertex="1" parent="1">
                    <mxGeometry x="1090" y="1000" width="60" height="30" as="geometry"/>
                </mxCell>
                <mxCell id="258" value="Owned by" style="text;html=1;strokeColor=none;fillColor=none;align=center;verticalAlign=middle;whiteSpace=wrap;rounded=0;shadow=0;fontSize=10;" vertex="1" parent="1">
                    <mxGeometry x="1420" y="830" width="60" height="30" as="geometry"/>
                </mxCell>
                <mxCell id="259" style="edgeStyle=none;html=1;exitX=0.5;exitY=0;exitDx=0;exitDy=0;entryX=0.867;entryY=0.985;entryDx=0;entryDy=0;fontSize=17;entryPerimeter=0;" edge="1" source="261" parent="1" target="2">
                    <mxGeometry relative="1" as="geometry">
                        <mxPoint x="970" y="780" as="targetPoint"/>
                    </mxGeometry>
                </mxCell>
                <mxCell id="267" style="edgeStyle=none;html=1;exitX=0.5;exitY=1;exitDx=0;exitDy=0;entryX=0;entryY=0;entryDx=0;entryDy=0;fontSize=10;startArrow=none;" edge="1" parent="1" source="261" target="197">
                    <mxGeometry relative="1" as="geometry"/>
                </mxCell>
                <mxCell id="261" value="Parking" style="rhombus;whiteSpace=wrap;html=1;shadow=0;fontSize=17;fillColor=#e51400;fontColor=#ffffff;strokeColor=#B20000;" vertex="1" parent="1">
                    <mxGeometry x="580" y="770" width="110" height="80" as="geometry"/>
                </mxCell>
                <mxCell id="263" value="M" style="text;html=1;strokeColor=none;fillColor=none;align=center;verticalAlign=middle;whiteSpace=wrap;rounded=0;shadow=0;fontSize=10;" vertex="1" parent="1">
                    <mxGeometry x="640" y="755" width="60" height="30" as="geometry"/>
                </mxCell>
                <mxCell id="264" value="Contains" style="text;html=1;strokeColor=none;fillColor=none;align=center;verticalAlign=middle;whiteSpace=wrap;rounded=0;shadow=0;fontSize=10;" vertex="1" parent="1">
                    <mxGeometry x="420" y="630" width="60" height="30" as="geometry"/>
                </mxCell>
                <mxCell id="265" value="Waits at" style="text;html=1;strokeColor=none;fillColor=none;align=center;verticalAlign=middle;whiteSpace=wrap;rounded=0;shadow=0;fontSize=10;" vertex="1" parent="1">
                    <mxGeometry x="910" y="1000" width="60" height="30" as="geometry"/>
                </mxCell>
                <mxCell id="268" value="N" style="text;html=1;strokeColor=none;fillColor=none;align=center;verticalAlign=middle;whiteSpace=wrap;rounded=0;shadow=0;fontSize=10;" vertex="1" parent="1">
                    <mxGeometry x="640" y="830" width="60" height="30" as="geometry"/>
                </mxCell>
                <mxCell id="270" value="&lt;font style=&quot;font-size: 13px;&quot;&gt;Example&lt;br&gt;&lt;/font&gt;" style="ellipse;whiteSpace=wrap;html=1;fontSize=20;shadow=1;fillColor=#647687;fontColor=#ffffff;strokeColor=#314354;" vertex="1" parent="1">
                    <mxGeometry x="2270" y="50" width="80" height="50" as="geometry"/>
                </mxCell>
                <mxCell id="271" value="&lt;font style=&quot;font-size: 17px;&quot;&gt;This represents a compound attribute.&lt;/font&gt;" style="text;html=1;strokeColor=none;fillColor=none;align=center;verticalAlign=middle;whiteSpace=wrap;rounded=0;shadow=1;fontSize=10;" vertex="1" parent="1">
                    <mxGeometry x="2360" y="60" width="160" height="30" as="geometry"/>
                </mxCell>
                <mxCell id="272" value="&lt;font style=&quot;font-size: 20px;&quot;&gt;Facility&lt;/font&gt;" style="rounded=0;whiteSpace=wrap;html=1;shadow=1;fontSize=17;fillColor=#a0522d;fontColor=#ffffff;strokeColor=#6D1F00;" vertex="1" parent="1">
                    <mxGeometry x="2230" y="110" width="120" height="60" as="geometry"/>
                </mxCell>
                <mxCell id="273" value="&lt;font style=&quot;font-size: 17px;&quot;&gt;This represents an entity.&lt;/font&gt;" style="text;html=1;strokeColor=none;fillColor=none;align=center;verticalAlign=middle;whiteSpace=wrap;rounded=0;shadow=1;fontSize=10;" vertex="1" parent="1">
                    <mxGeometry x="2360" y="120" width="160" height="30" as="geometry"/>
                </mxCell>
                <mxCell id="275" value="&lt;font size=&quot;1&quot; style=&quot;&quot;&gt;&lt;u style=&quot;font-size: 17px;&quot;&gt;ID&lt;/u&gt;&lt;/font&gt;" style="ellipse;whiteSpace=wrap;html=1;fontSize=20;fillColor=#76608a;fontColor=#ffffff;strokeColor=#432D57;" vertex="1" parent="1">
                    <mxGeometry x="2255" y="180" width="80" height="50" as="geometry"/>
                </mxCell>
                <mxCell id="276" value="&lt;font style=&quot;font-size: 17px;&quot;&gt;This represents a primary key.&lt;/font&gt;" style="text;html=1;strokeColor=none;fillColor=none;align=center;verticalAlign=middle;whiteSpace=wrap;rounded=0;shadow=1;fontSize=10;" vertex="1" parent="1">
                    <mxGeometry x="2370" y="190" width="160" height="30" as="geometry"/>
                </mxCell>
                <mxCell id="277" value="&lt;font style=&quot;font-size: 13px;&quot;&gt;Capacity&lt;/font&gt;" style="ellipse;whiteSpace=wrap;html=1;fontSize=20;shadow=1;" vertex="1" parent="1">
                    <mxGeometry x="2255" y="240" width="80" height="50" as="geometry"/>
                </mxCell>
                <mxCell id="278" value="&lt;font style=&quot;font-size: 17px;&quot;&gt;This represents a regular attribute.&lt;/font&gt;" style="text;html=1;strokeColor=none;fillColor=none;align=center;verticalAlign=middle;whiteSpace=wrap;rounded=0;shadow=1;fontSize=10;" vertex="1" parent="1">
                    <mxGeometry x="2370" y="250" width="160" height="30" as="geometry"/>
                </mxCell>
                <mxCell id="279" value="Contains" style="rhombus;whiteSpace=wrap;html=1;shadow=0;fontSize=17;fillColor=#e51400;fontColor=#ffffff;strokeColor=#B20000;" vertex="1" parent="1">
                    <mxGeometry x="2240" y="300" width="110" height="80" as="geometry"/>
                </mxCell>
                <mxCell id="280" value="&lt;font style=&quot;font-size: 17px;&quot;&gt;This represents a relationship.&lt;/font&gt;" style="text;html=1;strokeColor=none;fillColor=none;align=center;verticalAlign=middle;whiteSpace=wrap;rounded=0;shadow=1;fontSize=10;" vertex="1" parent="1">
                    <mxGeometry x="2380" y="325" width="160" height="30" as="geometry"/>
                </mxCell>
                <mxCell id="295" value="Manufacturer" style="rounded=0;whiteSpace=wrap;html=1;shadow=1;fontSize=17;" vertex="1" parent="1">
                    <mxGeometry x="1760" y="1360" width="120" height="30" as="geometry"/>
                </mxCell>
                <mxCell id="317" style="edgeStyle=none;html=1;exitX=0.5;exitY=0;exitDx=0;exitDy=0;fontSize=26;entryX=0.5;entryY=1;entryDx=0;entryDy=0;" edge="1" parent="1" source="296" target="313">
                    <mxGeometry relative="1" as="geometry">
                        <mxPoint x="1940.363636363636" y="1320.0000000000002" as="targetPoint"/>
                        <Array as="points">
                            <mxPoint x="1940" y="1320"/>
                            <mxPoint x="1580" y="1320"/>
                        </Array>
                    </mxGeometry>
                </mxCell>
                <mxCell id="296" value="Engine" style="rounded=0;whiteSpace=wrap;html=1;shadow=1;fontSize=17;" vertex="1" parent="1">
                    <mxGeometry x="1880" y="1360" width="120" height="30" as="geometry"/>
                </mxCell>
                <mxCell id="298" value="License Plate" style="rounded=0;whiteSpace=wrap;html=1;shadow=1;fontSize=17;fontStyle=4" vertex="1" parent="1">
                    <mxGeometry x="1520" y="1360" width="120" height="30" as="geometry"/>
                </mxCell>
                <mxCell id="299" value="NCT" style="rounded=0;whiteSpace=wrap;html=1;shadow=1;fontSize=17;" vertex="1" parent="1">
                    <mxGeometry x="1640" y="1360" width="120" height="30" as="geometry"/>
                </mxCell>
                <mxCell id="301" value="Vehicle" style="text;html=1;strokeColor=none;fillColor=none;align=center;verticalAlign=middle;whiteSpace=wrap;rounded=0;shadow=1;fontSize=26;" vertex="1" parent="1">
                    <mxGeometry x="1520" y="1330" width="110" height="30" as="geometry"/>
                </mxCell>
                <mxCell id="310" value="Horsepower" style="rounded=0;whiteSpace=wrap;html=1;shadow=1;fontSize=17;" vertex="1" parent="1">
                    <mxGeometry x="1880" y="1240" width="120" height="30" as="geometry"/>
                </mxCell>
                <mxCell id="311" value="Fuel Type" style="rounded=0;whiteSpace=wrap;html=1;shadow=1;fontSize=17;" vertex="1" parent="1">
                    <mxGeometry x="2000" y="1240" width="120" height="30" as="geometry"/>
                </mxCell>
                <mxCell id="313" value="&lt;u&gt;ID&lt;/u&gt;" style="rounded=0;whiteSpace=wrap;html=1;shadow=1;fontSize=17;" vertex="1" parent="1">
                    <mxGeometry x="1520" y="1240" width="120" height="30" as="geometry"/>
                </mxCell>
                <mxCell id="314" value="Model" style="rounded=0;whiteSpace=wrap;html=1;shadow=1;fontSize=17;" vertex="1" parent="1">
                    <mxGeometry x="1640" y="1240" width="120" height="30" as="geometry"/>
                </mxCell>
                <mxCell id="315" value="Manufacturer" style="rounded=0;whiteSpace=wrap;html=1;shadow=1;fontSize=17;" vertex="1" parent="1">
                    <mxGeometry x="1760" y="1240" width="120" height="30" as="geometry"/>
                </mxCell>
                <mxCell id="316" value="Engine" style="text;html=1;strokeColor=none;fillColor=none;align=center;verticalAlign=middle;whiteSpace=wrap;rounded=0;shadow=1;fontSize=26;" vertex="1" parent="1">
                    <mxGeometry x="1520" y="1210" width="110" height="30" as="geometry"/>
                </mxCell>
                <mxCell id="318" style="edgeStyle=none;html=1;exitX=0;exitY=0.5;exitDx=0;exitDy=0;entryX=0.963;entryY=0.359;entryDx=0;entryDy=0;fontSize=17;entryPerimeter=0;" edge="1" parent="1" source="319" target="242">
                    <mxGeometry relative="1" as="geometry">
                        <mxPoint x="1830.0025588147419" y="867.485248000045" as="targetPoint"/>
                    </mxGeometry>
                </mxCell>
                <mxCell id="319" value="&lt;font style=&quot;font-size: 13px;&quot;&gt;Fuel type&lt;br&gt;&lt;/font&gt;" style="ellipse;whiteSpace=wrap;html=1;fontSize=20;shadow=1;fontStyle=4" vertex="1" parent="1">
                    <mxGeometry x="1881.46" y="820" width="80" height="50" as="geometry"/>
                </mxCell>
                <mxCell id="320" value="Address" style="rounded=0;whiteSpace=wrap;html=1;shadow=1;fontSize=17;" vertex="1" parent="1">
                    <mxGeometry x="1880" y="1470" width="120" height="30" as="geometry"/>
                </mxCell>
                <mxCell id="321" value="Age" style="rounded=0;whiteSpace=wrap;html=1;shadow=1;fontSize=17;" vertex="1" parent="1">
                    <mxGeometry x="2000" y="1470" width="120" height="30" as="geometry"/>
                </mxCell>
                <mxCell id="322" value="Phone No." style="rounded=0;whiteSpace=wrap;html=1;shadow=1;fontSize=17;" vertex="1" parent="1">
                    <mxGeometry x="2120" y="1470" width="120" height="30" as="geometry"/>
                </mxCell>
                <mxCell id="323" value="&lt;u&gt;ID&lt;/u&gt;" style="rounded=0;whiteSpace=wrap;html=1;shadow=1;fontSize=17;" vertex="1" parent="1">
                    <mxGeometry x="1520" y="1470" width="120" height="30" as="geometry"/>
                </mxCell>
                <mxCell id="324" value="Name" style="rounded=0;whiteSpace=wrap;html=1;shadow=1;fontSize=17;" vertex="1" parent="1">
                    <mxGeometry x="1640" y="1470" width="120" height="30" as="geometry"/>
                </mxCell>
                <mxCell id="327" style="edgeStyle=none;html=1;entryX=0.5;entryY=1;entryDx=0;entryDy=0;fontSize=26;exitX=0.5;exitY=0;exitDx=0;exitDy=0;" edge="1" parent="1" source="325" target="298">
                    <mxGeometry relative="1" as="geometry">
                        <mxPoint x="1820" y="1440" as="sourcePoint"/>
                        <Array as="points">
                            <mxPoint x="1820" y="1430"/>
                            <mxPoint x="1580" y="1430"/>
                        </Array>
                    </mxGeometry>
                </mxCell>
                <mxCell id="325" value="Vehicle" style="rounded=0;whiteSpace=wrap;html=1;shadow=1;fontSize=17;" vertex="1" parent="1">
                    <mxGeometry x="1760" y="1470" width="120" height="30" as="geometry"/>
                </mxCell>
                <mxCell id="326" value="Customer" style="text;html=1;strokeColor=none;fillColor=none;align=center;verticalAlign=middle;whiteSpace=wrap;rounded=0;shadow=1;fontSize=26;" vertex="1" parent="1">
                    <mxGeometry x="1520" y="1440" width="110" height="30" as="geometry"/>
                </mxCell>
                <mxCell id="328" value="Parking Area" style="rounded=0;whiteSpace=wrap;html=1;shadow=1;fontSize=17;" vertex="1" parent="1">
                    <mxGeometry x="1880" y="1580" width="120" height="30" as="geometry"/>
                </mxCell>
                <mxCell id="329" value="Capacity" style="rounded=0;whiteSpace=wrap;html=1;shadow=1;fontSize=17;" vertex="1" parent="1">
                    <mxGeometry x="2000" y="1580" width="120" height="30" as="geometry"/>
                </mxCell>
                <mxCell id="330" value="Staff" style="rounded=0;whiteSpace=wrap;html=1;shadow=1;fontSize=17;" vertex="1" parent="1">
                    <mxGeometry x="2120" y="1580" width="120" height="30" as="geometry"/>
                </mxCell>
                <mxCell id="331" value="&lt;u&gt;ID&lt;/u&gt;" style="rounded=0;whiteSpace=wrap;html=1;shadow=1;fontSize=17;" vertex="1" parent="1">
                    <mxGeometry x="1520" y="1580" width="120" height="30" as="geometry"/>
                </mxCell>
                <mxCell id="335" style="edgeStyle=none;html=1;exitX=0.5;exitY=0;exitDx=0;exitDy=0;entryX=0.5;entryY=1;entryDx=0;entryDy=0;fontSize=26;" edge="1" parent="1" source="332" target="323">
                    <mxGeometry relative="1" as="geometry">
                        <Array as="points">
                            <mxPoint x="1700" y="1540"/>
                            <mxPoint x="1580" y="1540"/>
                        </Array>
                    </mxGeometry>
                </mxCell>
                <mxCell id="332" value="Customer ID" style="rounded=0;whiteSpace=wrap;html=1;shadow=1;fontSize=17;" vertex="1" parent="1">
                    <mxGeometry x="1640" y="1580" width="120" height="30" as="geometry"/>
                </mxCell>
                <mxCell id="333" value="Waiting Area" style="rounded=0;whiteSpace=wrap;html=1;shadow=1;fontSize=17;" vertex="1" parent="1">
                    <mxGeometry x="1760" y="1580" width="120" height="30" as="geometry"/>
                </mxCell>
                <mxCell id="334" value="Facility" style="text;html=1;strokeColor=none;fillColor=none;align=center;verticalAlign=middle;whiteSpace=wrap;rounded=0;shadow=1;fontSize=26;" vertex="1" parent="1">
                    <mxGeometry x="1520" y="1550" width="110" height="30" as="geometry"/>
                </mxCell>
                <mxCell id="336" value="Car Wash" style="rounded=0;whiteSpace=wrap;html=1;shadow=1;fontSize=17;" vertex="1" parent="1">
                    <mxGeometry x="2240" y="1580" width="120" height="30" as="geometry"/>
                </mxCell>
                <mxCell id="337" value="Address" style="rounded=0;whiteSpace=wrap;html=1;shadow=1;fontSize=17;" vertex="1" parent="1">
                    <mxGeometry x="1530" y="1690" width="120" height="30" as="geometry"/>
                </mxCell>
                <mxCell id="338" value="Phone No." style="rounded=0;whiteSpace=wrap;html=1;shadow=1;fontSize=17;" vertex="1" parent="1">
                    <mxGeometry x="1650" y="1690" width="120" height="30" as="geometry"/>
                </mxCell>
                <mxCell id="339" value="Products" style="rounded=0;whiteSpace=wrap;html=1;shadow=1;fontSize=17;" vertex="1" parent="1">
                    <mxGeometry x="1770" y="1690" width="120" height="30" as="geometry"/>
                </mxCell>
                <mxCell id="340" value="&lt;u&gt;ID&lt;/u&gt;" style="rounded=0;whiteSpace=wrap;html=1;shadow=1;fontSize=17;" vertex="1" parent="1">
                    <mxGeometry x="1170" y="1690" width="120" height="30" as="geometry"/>
                </mxCell>
                <mxCell id="341" value="Salary" style="rounded=0;whiteSpace=wrap;html=1;shadow=1;fontSize=17;" vertex="1" parent="1">
                    <mxGeometry x="1290" y="1690" width="120" height="30" as="geometry"/>
                </mxCell>
                <mxCell id="342" value="Name" style="rounded=0;whiteSpace=wrap;html=1;shadow=1;fontSize=17;" vertex="1" parent="1">
                    <mxGeometry x="1410" y="1690" width="120" height="30" as="geometry"/>
                </mxCell>
                <mxCell id="352" style="edgeStyle=none;html=1;exitX=0.75;exitY=1;exitDx=0;exitDy=0;entryX=0.5;entryY=1;entryDx=0;entryDy=0;fontSize=26;" edge="1" parent="1" source="343" target="330">
                    <mxGeometry relative="1" as="geometry">
                        <Array as="points">
                            <mxPoint x="2030" y="1640"/>
                        </Array>
                    </mxGeometry>
                </mxCell>
                <mxCell id="343" value="Staff" style="text;html=1;strokeColor=none;fillColor=none;align=center;verticalAlign=middle;whiteSpace=wrap;rounded=0;shadow=1;fontSize=26;" vertex="1" parent="1">
                    <mxGeometry x="1170" y="1660" width="110" height="30" as="geometry"/>
                </mxCell>
                <mxCell id="344" value="Products" style="rounded=0;whiteSpace=wrap;html=1;shadow=1;fontSize=17;" vertex="1" parent="1">
                    <mxGeometry x="2370" y="1690" width="120" height="30" as="geometry"/>
                </mxCell>
                <mxCell id="347" value="&lt;u&gt;ID&lt;/u&gt;" style="rounded=0;whiteSpace=wrap;html=1;shadow=1;fontSize=17;" vertex="1" parent="1">
                    <mxGeometry x="2010" y="1690" width="120" height="30" as="geometry"/>
                </mxCell>
                <mxCell id="348" value="Capacity" style="rounded=0;whiteSpace=wrap;html=1;shadow=1;fontSize=17;" vertex="1" parent="1">
                    <mxGeometry x="2130" y="1690" width="120" height="30" as="geometry"/>
                </mxCell>
                <mxCell id="349" value="Machinery" style="rounded=0;whiteSpace=wrap;html=1;shadow=1;fontSize=17;" vertex="1" parent="1">
                    <mxGeometry x="2250" y="1690" width="120" height="30" as="geometry"/>
                </mxCell>
                <mxCell id="351" style="edgeStyle=none;html=1;exitX=0.75;exitY=1;exitDx=0;exitDy=0;entryX=0.5;entryY=1;entryDx=0;entryDy=0;fontSize=26;" edge="1" parent="1" source="350" target="336">
                    <mxGeometry relative="1" as="geometry"/>
                </mxCell>
                <mxCell id="350" value="Car Wash" style="text;html=1;strokeColor=none;fillColor=none;align=center;verticalAlign=middle;whiteSpace=wrap;rounded=0;shadow=1;fontSize=26;" vertex="1" parent="1">
                    <mxGeometry x="2010" y="1660" width="150" height="30" as="geometry"/>
                </mxCell>
                <mxCell id="353" value="Supplier" style="rounded=0;whiteSpace=wrap;html=1;shadow=1;fontSize=17;" vertex="1" parent="1">
                    <mxGeometry x="1530" y="1800" width="120" height="30" as="geometry"/>
                </mxCell>
                <mxCell id="356" value="&lt;u&gt;ID&lt;/u&gt;" style="rounded=0;whiteSpace=wrap;html=1;shadow=1;fontSize=17;" vertex="1" parent="1">
                    <mxGeometry x="1170" y="1800" width="120" height="30" as="geometry"/>
                </mxCell>
                <mxCell id="357" value="Quantity" style="rounded=0;whiteSpace=wrap;html=1;shadow=1;fontSize=17;" vertex="1" parent="1">
                    <mxGeometry x="1290" y="1800" width="120" height="30" as="geometry"/>
                </mxCell>
                <mxCell id="358" value="Type" style="rounded=0;whiteSpace=wrap;html=1;shadow=1;fontSize=17;" vertex="1" parent="1">
                    <mxGeometry x="1410" y="1800" width="120" height="30" as="geometry"/>
                </mxCell>
                <mxCell id="360" style="edgeStyle=none;html=1;exitX=1;exitY=1;exitDx=0;exitDy=0;entryX=0.5;entryY=1;entryDx=0;entryDy=0;fontSize=26;" edge="1" parent="1" source="359" target="339">
                    <mxGeometry relative="1" as="geometry"/>
                </mxCell>
                <mxCell id="359" value="Products" style="text;html=1;strokeColor=none;fillColor=none;align=center;verticalAlign=middle;whiteSpace=wrap;rounded=0;shadow=1;fontSize=26;" vertex="1" parent="1">
                    <mxGeometry x="1170" y="1770" width="110" height="30" as="geometry"/>
                </mxCell>
                <mxCell id="366" style="edgeStyle=none;html=1;exitX=0.5;exitY=0;exitDx=0;exitDy=0;entryX=0.5;entryY=1;entryDx=0;entryDy=0;fontSize=26;" edge="1" parent="1" source="361" target="356">
                    <mxGeometry relative="1" as="geometry"/>
                </mxCell>
                <mxCell id="361" value="Products" style="rounded=0;whiteSpace=wrap;html=1;shadow=1;fontSize=17;" vertex="1" parent="1">
                    <mxGeometry x="1525" y="1890" width="120" height="30" as="geometry"/>
                </mxCell>
                <mxCell id="362" value="&lt;u&gt;ID&lt;/u&gt;" style="rounded=0;whiteSpace=wrap;html=1;shadow=1;fontSize=17;" vertex="1" parent="1">
                    <mxGeometry x="1165" y="1890" width="120" height="30" as="geometry"/>
                </mxCell>
                <mxCell id="363" value="Stock" style="rounded=0;whiteSpace=wrap;html=1;shadow=1;fontSize=17;" vertex="1" parent="1">
                    <mxGeometry x="1285" y="1890" width="120" height="30" as="geometry"/>
                </mxCell>
                <mxCell id="364" value="Address" style="rounded=0;whiteSpace=wrap;html=1;shadow=1;fontSize=17;" vertex="1" parent="1">
                    <mxGeometry x="1405" y="1890" width="120" height="30" as="geometry"/>
                </mxCell>
                <mxCell id="367" style="edgeStyle=none;html=1;exitX=0.75;exitY=1;exitDx=0;exitDy=0;entryX=0.5;entryY=1;entryDx=0;entryDy=0;fontSize=26;" edge="1" parent="1" source="365" target="353">
                    <mxGeometry relative="1" as="geometry"/>
                </mxCell>
                <mxCell id="365" value="Supplier" style="text;html=1;strokeColor=none;fillColor=none;align=center;verticalAlign=middle;whiteSpace=wrap;rounded=0;shadow=1;fontSize=26;" vertex="1" parent="1">
                    <mxGeometry x="1165" y="1860" width="110" height="30" as="geometry"/>
                </mxCell>
            </root>
        </mxGraphModel>
    </diagram>
</mxfile>